<?xml version="1.0" encoding="iso-8859-1"?>
<!-- Uploaded to: SVG Repo, www.svgrepo.com, Generator: SVG Repo Mixer Tools -->
<!DOCTYPE svg PUBLIC "-//W3C//DTD SVG 1.1//EN" "http://www.w3.org/Graphics/SVG/1.1/DTD/svg11.dtd">
<svg fill="#000000" version="1.1" id="Capa_1" xmlns="http://www.w3.org/2000/svg" xmlns:xlink="http://www.w3.org/1999/xlink" 
	 width="800px" height="800px" viewBox="0 0 473.738 473.739"
	 xml:space="preserve">
<g>
	<g>
		<path d="M304.626,239.333c-0.732-3.643-1.47-7.458-2.188-11.661c0,0-0.084-10.034-5.937-18.127
			c-3.333,3.309-9.092,10.921-14.986,23.137l-42.786,88.606c-2.655,5.508-2.819,11.948-0.416,17.236
			c1.993,4.414,5.57,7.551,10.088,8.811c13.208,3.706,26.668,5.283,41.169,4.522c10.827-0.555,20.152-12.092,19.541-24.194
			l-4.425-87.759C304.673,239.722,304.645,239.542,304.626,239.333z"/>
		<path d="M236.872,473.739c119.242,0,216.247-97.015,216.247-216.244c0-88.222-53.13-164.218-129.049-197.821
			c-0.146,0.439-0.196,0.892-0.354,1.326c-2.129,8.797-5.051,17.002-8.49,24.646c65.204,29.862,110.689,95.561,110.689,171.835
			c0,42.404-14.192,81.459-37.859,113.026c-15.729-13.403-31.008-28.264-42.494-46.124c-14.715-22.901-23.896-34.308-30.816-50.382
			l2.693,53.257c0.84,16.759-11.995,32.16-27.447,32.959c-2.437,0.111-4.816,0.177-7.146,0.177c-12.489,0-24.838-1.685-36.726-5.012
			c-6.938-1.933-12.421-6.697-15.445-13.404c-3.397-7.519-3.209-16.601,0.516-24.307l42.778-88.613
			c1.76-3.636,8.914-17.845,16.573-25.24c-0.229-0.156-0.401-0.354-0.649-0.506c-10.412-6.363-19.434,1.685-47.774,1.377
			c-1.895-4.378-6.242-7.458-11.317-7.458c-4.385,0-8.212,2.317-10.394,5.773c-37.101-5.122-70.333-23.316-79.576-28.728
			c0.044-0.408,0.156-0.808,0.156-1.232c0-6.732-7.007-12.181-15.653-12.181c-8.653,0-15.67,5.449-15.67,12.181
			c0,4.448,3.12,8.298,7.689,10.422c0.705,18.059,8.59,78.09,79.936,95.307l-14.354,24.054c-4.27,7.154-5.22,15.435-2.602,22.71
			c2.42,6.73,7.559,11.794,14.473,14.263c7.367,2.637,15.304,5.125,23.581,7.426c0,0,12.041,29.841,21.251,46.945v52.234
			c-0.942,0.005-1.848,0.145-2.784,0.145c-104.242,0-189.056-84.81-189.056-189.054c0-73.679,42.458-137.474,104.106-168.659
			c-5.355-11.462-8.497-20.796-9.958-25.592C70.17,98.461,20.62,172.281,20.62,257.495
			C20.62,376.724,117.63,473.739,236.872,473.739z M248,408.264c7.393,11.327,16.148,22.108,26.594,31.644v2.842
			c-8.653,1.76-17.572,2.707-26.594,3.239V408.264z"/>
		<path d="M156.761,55.209c0,0,18.922,71.98,74.055,93.131c0,0,59.025-30.205,73.684-92.137c0.032-0.117,0.032-0.206,0.056-0.327
			c1.773-4.593,2.847-9.549,2.847-14.778C307.402,18.398,289.005,0,266.305,0c-15.243,0-28.399,8.394-35.489,20.727
			C223.722,8.403,210.57,0,195.321,0c-22.701,0-41.096,18.398-41.096,41.099c0,4.965,1.013,9.661,2.625,14.062
			C156.845,55.169,156.761,55.209,156.761,55.209z M201.231,79.077l25.762,9.516l23.2-49.116c2.273-4.814,8.364-7.967,13.601-7.045
			l8.33,1.47c5.246,0.926,7.053,5.239,4.042,9.626l-47.459,69.233c-3.017,4.396-7.901,4.396-10.93,0.019l-20.108-29.106
			C194.639,79.287,196.226,77.238,201.231,79.077z"/>
	</g>
</g>
</svg>